<mxfile host="app.diagrams.net" modified="2024-03-04T18:19:19.126Z" agent="Mozilla/5.0 (Windows NT 10.0; WOW64) AppleWebKit/537.36 (KHTML, like Gecko) Chrome/86.0.4240.198 Safari/537.36" version="23.1.7" etag="EhCreIv0i9mMYm63HNpE" type="github">
  <diagram name="第 1 页" id="PYDp_uJGCCNNJGIhthEv">
    <mxGraphModel>
      <root>
        <mxCell id="0" />
        <mxCell id="1" parent="0" />
      </root>
    </mxGraphModel>
  </diagram>
</mxfile>
